<?xml version="1.0" standalone="no"?>
<!DOCTYPE svg PUBLIC "-//W3C//DTD SVG 20010904//EN"
 "http://www.w3.org/TR/2001/REC-SVG-20010904/DTD/svg10.dtd">
<svg version="1.0" xmlns="http://www.w3.org/2000/svg"
 width="400.000000pt" height="400.000000pt" viewBox="0 0 400.000000 400.000000"
 preserveAspectRatio="xMidYMid meet">
<metadata>
Created by potrace 1.14, written by Peter Selinger 2001-2017
</metadata>
<g transform="translate(0.000000,400.000000) scale(0.100000,-0.100000)"
fill="#000000" stroke="none">
<path d="M0 2000 l0 -2000 1179 0 c922 0 1181 3 1189 13 21 26 51 87 62 126 6
22 17 47 25 55 9 8 21 41 28 73 8 32 18 57 23 57 5 -1 18 2 29 7 17 7 17 8 3
8 -12 1 -18 9 -18 24 0 18 2 19 10 7 8 -12 10 -11 10 8 0 12 5 22 10 22 6 0
10 9 10 20 0 11 9 29 20 40 11 11 20 28 20 38 0 9 7 29 14 44 13 25 13 29 -5
41 -18 13 -18 15 -3 28 14 11 19 10 35 -11 28 -36 37 -80 50 -222 9 -98 8
-148 -1 -210 -8 -59 -9 -83 -1 -86 6 -2 11 -22 12 -45 0 -33 2 -38 9 -22 7 17
9 17 9 3 1 -17 38 -18 641 -18 l640 0 0 899 0 899 -24 6 c-13 3 -37 3 -54 0
-16 -3 -32 -1 -36 4 -4 7 -19 4 -41 -9 -19 -11 -51 -23 -72 -25 -103 -13 -132
-15 -178 -17 -46 -2 -50 -4 -55 -32 -24 -113 -99 -101 -100 17 0 83 -20 159
-43 167 -16 6 -20 19 -23 72 -2 35 -5 103 -8 151 -3 60 -1 89 7 96 7 6 44 13
82 17 64 6 72 4 96 -17 14 -13 33 -37 42 -54 9 -17 23 -34 32 -37 22 -9 18
-24 -9 -31 -32 -8 -42 -37 -20 -53 24 -17 59 -16 78 2 21 21 33 19 52 -10 9
-14 20 -25 25 -25 4 0 25 -11 45 -25 27 -18 50 -25 86 -25 42 0 53 5 83 35
l35 34 0 205 0 205 -27 3 c-35 4 -40 25 -42 174 -1 94 2 113 15 118 21 8 20 8
38 -10 15 -14 16 -7 14 73 l-1 88 -6 -65 c-6 -61 -7 -65 -31 -65 -22 0 -26 5
-32 45 -3 25 -7 87 -7 138 l-1 93 28 -3 c25 -3 27 -7 33 -61 10 -90 19 -80 19
21 l0 92 -44 0 c-76 0 -72 14 -68 -226 5 -221 0 -252 -32 -225 -8 7 -16 25
-18 39 -3 27 -8 29 -42 16 -14 -5 -17 -3 -14 12 2 12 12 19 27 19 39 0 34 18
-9 39 -23 11 -43 29 -46 40 -3 12 -4 68 -2 126 3 104 3 105 28 108 32 5 47 19
34 32 -6 6 -40 4 -94 -5 -125 -20 -122 -17 -115 -84 3 -31 6 -101 8 -156 2
-95 1 -100 -22 -111 -13 -7 -27 -17 -31 -24 -4 -6 -6 -68 -4 -137 2 -79 -2
-135 -8 -147 -6 -12 -14 -34 -18 -51 -7 -36 -36 -52 -113 -61 l-56 -7 6 54 c3
30 10 56 15 58 5 1 3 10 -5 20 -23 26 -29 57 -13 70 12 10 12 19 1 64 -8 29
-14 90 -14 137 0 47 -3 135 -6 195 -4 61 -8 149 -10 197 l-3 87 30 10 c17 6
42 11 55 11 13 0 33 5 44 10 22 12 23 10 8 -24 -9 -19 -9 -29 0 -39 6 -8 14
-34 17 -58 7 -53 10 -57 32 -41 9 7 37 22 62 34 38 19 41 23 23 26 -36 5 -32
56 5 70 74 26 202 45 325 46 l67 1 0 188 c0 103 -2 187 -4 187 -2 0 -21 -16
-42 -35 -45 -39 -64 -44 -71 -15 -3 11 -11 20 -19 20 -7 0 -18 8 -24 18 -10
16 -10 16 -20 0 -32 -53 -70 21 -70 133 0 90 -8 81 104 116 62 19 72 28 56 53
-8 13 -16 12 -62 -3 -29 -9 -72 -21 -95 -27 l-43 -11 0 -104 c0 -59 -5 -115
-12 -130 -9 -21 -9 -31 1 -47 13 -21 6 -78 -9 -78 -5 0 -14 9 -21 21 -8 16
-17 20 -37 16 -15 -3 -35 -1 -44 4 -27 15 -50 -3 -81 -63 -20 -39 -28 -70 -30
-118 -2 -61 -4 -65 -27 -68 -14 -2 -30 -8 -37 -14 -7 -5 -18 -6 -25 -1 -7 4
-24 8 -38 8 l-25 0 -2 125 c-1 69 -6 171 -10 226 -9 111 -5 143 17 154 8 4 26
13 39 20 14 7 70 23 125 37 95 22 118 28 174 39 16 3 22 11 22 29 0 14 5 25
10 25 6 0 10 7 10 16 0 11 -6 14 -20 9 -12 -4 -27 -2 -34 4 -10 9 -21 7 -44
-6 -37 -21 -50 -13 -28 19 9 12 16 26 16 30 0 10 -674 11 -683 1 -4 -3 -2 -12
4 -19 13 -16 3 -84 -11 -84 -6 0 -10 22 -10 49 0 42 -3 49 -22 55 -56 15 -61
10 -55 -47 4 -29 2 -70 -4 -91 l-11 -38 -14 28 c-9 16 -14 43 -12 61 1 18 -3
38 -10 45 -6 6 -12 20 -12 30 0 17 -34 18 -729 18 -402 0 -732 -4 -735 -8 -3
-5 -1 -25 5 -45 6 -24 6 -51 -2 -84 -6 -26 -9 -100 -8 -163 6 -283 4 -338 -17
-361 -17 -20 -17 -22 -1 -16 9 4 17 3 17 -1 0 -15 -17 -28 -59 -47 -32 -14
-46 -16 -48 -8 -3 9 -11 9 -28 -3 -12 -8 -27 -13 -31 -12 -5 2 -19 -7 -32 -20
-12 -12 -16 -22 -10 -22 7 0 2 -7 -10 -16 l-23 -16 21 -15 c11 -8 29 -12 38
-9 11 4 9 -1 -7 -14 -25 -22 -41 -26 -41 -10 0 5 -3 9 -7 9 -29 -5 -33 3 -29
51 6 58 11 70 32 70 8 0 13 4 10 8 -7 11 -105 13 -125 2 -14 -7 -18 -19 -16
-52 2 -24 -4 -57 -12 -75 -9 -20 -12 -43 -8 -63 5 -22 3 -32 -9 -36 -20 -8
-21 -30 0 -38 19 -7 16 -82 -3 -79 -7 2 -13 -5 -14 -15 -2 -40 -17 37 -18 95
-1 41 3 63 12 66 10 4 10 7 0 18 -17 18 -16 27 4 31 15 3 15 4 0 20 -14 14
-16 41 -16 187 0 105 4 181 11 196 8 18 8 28 -1 38 -7 10 -9 35 -4 78 4 35 7
76 7 91 0 20 3 24 12 17 8 -7 14 -7 19 1 3 5 1 10 -5 10 -7 0 -11 15 -9 38 1
20 -2 46 -8 57 -6 11 -10 48 -9 83 l2 62 -160 -2 c-107 -2 -161 -7 -163 -14
-2 -6 5 -14 16 -17 24 -6 25 -43 2 -70 -12 -14 -13 -22 -4 -36 9 -15 8 -23 -8
-40 -18 -19 -20 -20 -39 -4 -24 21 -26 46 -5 63 25 21 18 51 -15 63 -18 7 -33
21 -36 34 l-6 23 -229 0 -229 0 0 -2000z m3230 1861 c0 -21 -23 -45 -33 -34
-4 3 -7 17 -7 30 0 16 6 23 20 23 13 0 20 -7 20 -19z m-980 -61 c0 -19 2 -49
6 -66 4 -22 1 -36 -11 -48 -27 -27 -40 -14 -38 38 1 25 -3 46 -8 46 -5 0 -9
16 -9 35 0 28 5 38 23 44 27 11 37 -2 37 -49z m1014 -82 c3 -13 8 -86 11 -162
5 -106 3 -141 -6 -147 -9 -5 -10 -11 -2 -21 15 -19 24 -87 17 -130 -7 -43 -44
-69 -69 -48 -19 16 -19 46 0 54 30 11 17 42 -22 52 -20 5 -38 14 -40 20 -6 19
26 44 57 44 16 0 32 5 35 10 3 6 0 10 -7 10 -7 0 -18 12 -25 28 -14 34 -17
267 -3 293 15 27 48 25 54 -3z m-819 3 c-12 -10 -65 -24 -65 -16 0 7 40 24 60
24 8 1 10 -2 5 -8z m-1845 -59 c0 -15 -36 -42 -55 -42 -10 0 -4 37 7 48 19 19
48 15 48 -6z m1890 -9 c0 -5 -5 -15 -10 -23 -7 -11 -12 -12 -21 -3 -6 6 -8 16
-5 22 8 12 36 15 36 4z m563 -49 c-4 -10 -9 -12 -15 -6 -12 12 -1 35 12 27 5
-3 6 -13 3 -21z m-820 -25 c-41 -20 -98 -26 -88 -9 8 13 97 38 113 32 9 -3 -1
-12 -25 -23z m66 2 c-15 -5 -22 6 -14 19 6 9 10 9 16 -1 5 -8 4 -15 -2 -18z
m406 -1 c-3 -5 -16 -10 -28 -9 -21 0 -21 1 -2 9 28 12 37 12 30 0z m-2141 -6
c21 -8 21 -40 0 -48 -24 -9 -6 -26 27 -26 34 0 34 -1 13 -41 -19 -37 -4 -62
31 -53 24 6 43 -10 25 -21 -18 -11 -11 -42 13 -53 21 -11 21 -12 -8 -11 -61 2
-67 0 -63 -23 2 -14 15 -29 33 -37 28 -14 29 -14 7 -22 -12 -5 -25 -16 -29
-25 -3 -8 -17 -20 -32 -26 -15 -6 -21 -12 -13 -15 18 -7 15 -27 -9 -57 -27
-35 -40 -33 -40 7 0 17 0 46 -1 62 -2 88 5 233 11 243 4 7 4 37 1 67 -3 30 -2
61 2 70 10 17 11 17 32 9z m2276 -28 c0 -8 -4 -18 -10 -21 -5 -3 -10 3 -10 14
0 12 5 21 10 21 6 0 10 -6 10 -14z m-354 -48 c-4 -18 -8 -40 -9 -49 -1 -10 -8
-14 -19 -11 -13 3 -18 14 -18 41 0 43 5 51 33 51 16 0 18 -5 13 -32z m302 16
l37 -15 -25 -19 c-14 -11 -21 -20 -16 -20 5 0 3 -6 -3 -14 -6 -8 -15 -33 -19
-57 -4 -23 -13 -44 -19 -46 -16 -6 -53 78 -53 121 0 36 21 66 46 66 8 0 31 -7
52 -16z m1086 -25 c12 -11 8 -15 -31 -22 -30 -6 -33 -4 -33 19 0 23 3 25 28
19 15 -3 31 -11 36 -16z m73 -11 c-3 -8 -6 -5 -6 6 -1 11 2 17 5 13 3 -3 4
-12 1 -19z m-1627 2 c0 -5 -2 -10 -4 -10 -3 0 -8 5 -11 10 -3 6 -1 10 4 10 6
0 11 -4 11 -10z m520 -46 c0 -22 -2 -24 -14 -14 -8 6 -12 18 -9 26 9 23 23 16
23 -12z m1070 6 c0 -19 -11 -26 -23 -14 -8 8 3 34 14 34 5 0 9 -9 9 -20z m-50
0 c0 -5 -5 -10 -11 -10 -5 0 -7 5 -4 10 3 6 8 10 11 10 2 0 4 -4 4 -10z m-280
-56 c0 -15 -6 -24 -15 -24 -15 0 -21 40 -9 53 12 11 24 -3 24 -29z m-1080 -5
c0 -25 -16 -24 -30 0 -14 27 -13 30 10 24 11 -3 20 -14 20 -24z m560 -13 c0
-8 -4 -18 -10 -21 -5 -3 -10 3 -10 14 0 12 5 21 10 21 6 0 10 -6 10 -14z
m-229 -53 c-9 -16 -10 -14 -11 12 0 21 3 26 11 18 8 -8 8 -16 0 -30z m1149 13
c0 -8 -44 -19 -127 -30 -71 -10 -168 -29 -218 -42 -103 -27 -115 -29 -115 -11
0 35 128 79 158 54 12 -9 16 -9 19 0 8 24 69 42 148 45 99 4 135 -1 135 -16z
m-906 -68 c7 -12 6 -21 -3 -32 -21 -25 -31 -19 -31 20 0 37 14 42 34 12z
m-1794 3 c0 -12 -20 -25 -27 -18 -7 7 6 27 18 27 5 0 9 -4 9 -9z m2070 -21 c0
-5 -4 -10 -10 -10 -5 0 -10 5 -10 10 0 6 5 10 10 10 6 0 10 -4 10 -10z m-492
-68 c2 -17 -1 -32 -5 -32 -17 0 -33 24 -33 48 0 38 34 24 38 -16z m-723 -13
c49 -11 126 -33 170 -49 108 -37 284 -122 316 -152 82 -75 194 -267 217 -373
17 -76 26 -234 12 -212 -26 41 -179 99 -260 99 -79 0 -103 -5 -138 -31 -18
-12 -36 -20 -40 -17 -10 6 -29 -28 -34 -59 -2 -13 -12 -21 -31 -23 -32 -4 -36
-22 -4 -22 38 0 52 -16 49 -55 -2 -19 0 -35 5 -35 5 0 17 -23 28 -51 43 -112
145 -182 213 -145 15 8 38 17 52 20 14 3 36 15 48 26 15 14 29 19 43 15 14 -5
26 1 41 20 11 14 22 24 25 22 2 -3 8 -50 12 -106 4 -56 11 -104 14 -108 10 -9
47 27 67 67 29 57 60 174 58 219 -2 54 9 63 18 15 4 -22 11 -42 16 -45 11 -7
-11 -71 -22 -64 -8 5 -40 -89 -40 -118 0 -7 -9 -24 -20 -37 -11 -12 -17 -27
-14 -31 3 -5 -7 -16 -23 -25 -28 -16 -28 -17 -25 -105 4 -94 -17 -220 -42
-255 -14 -18 -15 -18 -33 -1 -11 9 -25 17 -32 17 -31 0 -82 57 -116 128 -16
33 -45 44 -45 17 0 -9 9 -34 21 -56 25 -49 24 -123 -1 -98 -8 9 -28 19 -43 23
-15 3 -27 11 -27 17 0 6 -10 8 -22 5 -13 -3 -17 -3 -10 0 9 4 4 16 -18 40 -37
43 -38 59 -2 78 43 22 60 48 62 96 4 75 3 77 -35 78 -20 1 -39 4 -44 6 -4 3
-24 1 -44 -4 -29 -6 -41 -4 -58 10 -44 39 -94 35 -143 -13 -48 -45 -146 -73
-146 -41 0 8 -4 13 -9 10 -12 -8 -22 -62 -14 -81 9 -26 82 -58 119 -52 34 6
57 -6 67 -35 4 -10 -1 -18 -13 -21 -13 -3 -21 1 -26 15 -4 15 -9 17 -17 9 -16
-16 -25 -14 -30 7 -4 14 -6 14 -12 -5 -5 -16 -15 -23 -31 -23 -18 0 -24 -6
-24 -21 0 -11 -4 -17 -10 -14 -5 3 -16 3 -22 -2 -7 -4 -17 -8 -23 -8 -5 -1
-17 -4 -25 -7 -18 -7 -182 -29 -186 -25 -5 5 48 102 59 109 6 4 8 11 3 15 -4
4 -16 -2 -26 -14 -10 -13 -24 -23 -32 -23 -7 0 -26 -7 -42 -15 -16 -9 -35 -14
-42 -11 -8 3 -11 0 -8 -8 4 -10 -4 -12 -31 -9 -27 3 -37 -1 -43 -14 -9 -23
-102 -28 -102 -6 0 8 -6 13 -14 11 -8 -2 -22 6 -30 17 -10 13 -18 16 -23 9
-14 -19 -43 -25 -49 -10 -3 8 -16 17 -30 20 -13 4 -24 11 -24 16 0 6 -9 10
-21 10 -12 0 -23 8 -26 20 -4 15 -11 18 -37 14 -28 -5 -29 -4 -13 9 15 13 16
17 4 28 -7 8 -12 20 -9 27 2 6 -3 12 -12 12 -9 0 -16 5 -16 11 0 6 -7 17 -15
25 -8 9 -15 24 -15 35 0 11 -7 22 -16 26 -13 5 -13 7 -2 14 10 7 10 11 -4 21
-9 7 -18 27 -19 43 -2 17 -7 35 -11 40 -9 14 -12 201 -3 240 12 55 27 83 44
88 28 7 117 -10 183 -35 89 -34 142 -88 166 -168 l19 -65 -5 68 -5 67 31 0
c17 0 41 -4 54 -9 39 -16 137 -43 141 -39 2 1 20 -14 39 -34 31 -33 41 -38 82
-38 57 0 143 35 151 61 4 10 3 28 0 39 -5 15 -2 20 13 20 11 0 22 -4 24 -9 2
-4 14 -12 27 -16 15 -4 21 -3 17 3 -3 5 0 12 8 15 19 7 42 77 28 86 -6 4 -5
11 4 18 23 23 24 -4 3 -85 -25 -93 -73 -188 -109 -214 -43 -31 -138 -51 -247
-52 -57 -1 -103 -4 -103 -8 0 -15 52 -20 163 -17 103 4 117 6 154 31 57 38
113 97 119 127 10 46 23 71 38 71 8 0 17 8 20 18 4 10 22 34 41 52 31 30 38
33 55 22 16 -10 20 -10 20 2 0 16 -27 30 -51 27 -21 -2 -49 30 -31 36 20 7 14
29 -13 47 -15 10 -25 26 -25 39 0 13 -9 33 -20 45 -11 12 -20 26 -20 32 0 5
-7 10 -15 10 -8 0 -15 4 -15 9 0 12 -90 64 -97 57 -4 -3 -12 -1 -20 5 -38 32
-459 -15 -518 -58 -26 -19 -32 -33 -14 -33 5 0 7 -5 4 -10 -4 -7 -13 -6 -26 1
-18 9 -73 3 -221 -27 -25 -5 -28 -3 -28 23 0 36 51 152 68 153 6 0 12 7 12 15
0 19 27 74 46 93 8 7 14 22 14 32 0 18 25 108 40 145 5 11 12 31 16 45 6 24
134 160 149 160 5 0 30 14 58 31 36 22 69 33 116 38 125 14 252 10 346 -10z
m1144 2 c19 -12 28 -446 9 -468 -9 -11 -9 -16 0 -22 17 -10 25 -60 14 -75 -6
-7 -6 -36 1 -75 9 -55 8 -65 -6 -72 -14 -8 -14 -12 -1 -38 15 -30 16 -129 1
-138 -5 -3 -16 2 -24 10 -13 13 -14 24 -6 68 6 30 7 64 2 81 -4 17 -11 132
-15 256 -3 125 -7 228 -9 230 -2 3 -140 -20 -202 -33 -20 -5 -21 -9 -19 -140
2 -74 1 -135 0 -135 -13 0 -64 140 -64 174 0 47 -15 73 -45 78 -11 2 -21 12
-23 23 -7 35 -44 115 -54 115 -5 0 -6 -6 -2 -12 5 -10 4 -10 -6 -1 -11 10 -11
15 0 28 10 12 10 15 -3 15 -16 0 -30 24 -20 34 4 3 22 6 42 6 20 0 45 7 55 15
11 8 34 15 50 15 17 0 64 9 105 20 41 11 86 20 100 20 14 1 40 7 56 15 36 16
46 17 64 6z m291 -63 c0 -11 -36 -28 -44 -21 -10 10 -7 38 6 51 10 10 15 9 25
-5 7 -9 13 -20 13 -25z m-2510 4 c0 -10 -6 -27 -14 -38 -14 -18 -15 -18 -21
-1 -4 9 -2 23 4 31 6 7 8 16 4 19 -3 4 1 7 10 7 10 0 17 -8 17 -18z m-494 -63
c44 -27 43 -36 -6 -36 -37 0 -40 2 -40 28 0 35 3 35 46 8z m3122 -259 c0 -34
-2 -40 -8 -25 -5 11 -8 45 -8 75 0 45 2 50 8 25 4 -16 8 -50 8 -75z m-2755 42
c-6 -14 -12 -19 -21 -13 -11 6 -10 11 3 25 21 21 28 16 18 -12z m-270 -7 c-1
-5 -12 -12 -24 -15 -12 -3 -27 -14 -33 -25 -13 -24 -48 -51 -60 -47 -4 1 -14
-2 -20 -7 -9 -8 -13 -7 -14 2 0 6 -3 21 -7 33 -8 27 18 54 53 55 15 0 36 4 47
9 25 11 61 8 58 -5z m231 -32 c7 -17 -19 -52 -30 -40 -9 8 4 57 15 57 5 0 12
-8 15 -17z m-369 -93 c3 -5 1 -10 -4 -10 -6 0 -11 5 -11 10 0 6 2 10 4 10 3 0
8 -4 11 -10z m35 -64 c0 -16 -26 -46 -41 -46 -10 0 -12 43 -2 53 12 13 43 7
43 -7z m-30 -78 c0 -19 -2 -20 -10 -8 -13 19 -13 30 0 30 6 0 10 -10 10 -22z
m3167 -40 c-3 -8 -6 -5 -6 6 -1 11 2 17 5 13 3 -3 4 -12 1 -19z m-1897 -23 c0
-3 -10 -9 -22 -14 -20 -7 -16 -10 24 -16 31 -5 45 -11 42 -20 -7 -17 -77 -39
-102 -31 -11 4 -23 2 -27 -4 -3 -5 -22 -8 -42 -6 -23 3 -41 0 -50 -10 -23 -23
-26 -10 -6 25 10 18 32 36 51 43 17 7 32 18 32 25 0 9 16 13 50 13 28 0 50 -2
50 -5z m2104 -50 c9 -23 -4 -45 -27 -45 -16 0 -18 3 -9 12 7 7 12 20 12 30 0
22 16 24 24 3z m-2399 -35 c-3 -5 -18 -10 -33 -9 -24 0 -25 1 -7 9 28 12 47
12 40 0z m2105 -27 c0 -20 -3 -24 -11 -16 -7 7 -9 19 -6 27 10 24 17 19 17
-11z m-750 -103 c0 -21 -4 -42 -10 -45 -5 -3 -10 -1 -10 5 0 6 -10 8 -22 5
-14 -3 -35 3 -53 15 -16 11 -24 20 -17 20 6 0 12 6 12 14 0 15 14 20 68 23 31
2 32 0 32 -37z m-573 4 c-9 -9 -28 6 -21 18 4 6 10 6 17 -1 6 -6 8 -13 4 -17z
m723 6 c0 -5 -2 -10 -4 -10 -3 0 -8 5 -11 10 -3 6 -1 10 4 10 6 0 11 -4 11
-10z m310 -153 c0 -82 -3 -96 -21 -113 l-20 -18 20 -8 c12 -4 21 -16 21 -28 0
-21 -41 -70 -59 -70 -11 0 -20 40 -23 110 l-3 45 -42 1 c-24 0 -48 8 -58 17
-13 13 -13 17 -2 17 13 0 28 23 41 63 3 11 2 16 -4 12 -11 -7 -14 48 -3 58 3
4 39 7 80 7 l73 0 0 -93z m621 -83 c-27 -11 -101 -7 -101 5 0 4 29 7 64 7 55
-1 60 -2 37 -12z m-2792 -74 c-2 -61 -12 -78 -23 -37 -9 36 -7 72 6 85 7 7 13
12 15 12 2 0 3 -27 2 -60z m1918 23 c-3 -10 -5 -4 -5 12 0 17 2 24 5 18 2 -7
2 -21 0 -30z m-1943 -124 c16 -15 -3 -23 -31 -13 -39 13 -44 39 -7 30 16 -4
33 -12 38 -17z m1196 -261 c15 -19 22 -21 37 -12 26 16 83 27 83 17 0 -14 57
-44 73 -37 10 3 17 -3 21 -20 3 -14 11 -26 16 -26 6 0 10 -9 10 -20 0 -18 -3
-18 -45 9 -41 26 -57 30 -163 36 -109 6 -126 5 -220 -20 -107 -28 -143 -26
-101 6 13 10 29 19 35 19 15 0 45 35 37 43 -3 4 -2 7 3 7 6 0 15 -5 22 -12 9
-9 12 -8 12 8 0 10 4 15 8 9 10 -14 52 -19 52 -6 0 11 23 18 68 20 24 1 39 -6
52 -21z m-803 -13 c-15 -16 -22 -11 -13 10 3 9 10 13 16 10 6 -4 5 -11 -3 -20z
m260 -107 c9 -11 25 -58 27 -80 1 -4 7 -13 14 -19 16 -17 15 -29 -3 -29 -9 0
-27 -7 -41 -16 -19 -13 -28 -14 -37 -5 -9 9 -8 14 3 22 12 8 10 9 -6 4 -19 -5
-34 9 -33 31 0 2 -12 19 -27 37 l-27 32 46 10 c25 6 49 13 53 18 11 10 20 9
31 -5z m508 -28 c4 -6 -6 -10 -22 -9 -25 0 -26 1 -8 9 11 5 21 9 22 9 1 1 5
-3 8 -9z m164 -15 c33 -10 15 -24 -26 -19 -39 5 -53 11 -53 23 0 8 47 6 79 -4z
m-416 -22 c4 -2 5 -8 2 -13 -3 -5 6 -17 21 -27 14 -10 37 -30 51 -45 15 -16
34 -28 44 -28 10 0 20 -4 23 -9 8 -12 61 -22 131 -25 33 -1 79 -6 101 -10 38
-7 43 -6 49 13 3 11 10 21 16 21 12 0 41 69 33 81 -9 16 30 9 52 -9 30 -23 38
-56 20 -75 -8 -8 -13 -17 -10 -19 2 -3 -2 -11 -11 -18 -19 -16 -20 -69 0 -76
20 -8 19 -58 -1 -89 -12 -18 -20 -22 -33 -16 -15 8 -63 7 -86 0 -6 -2 -21 6
-35 19 -13 12 -29 21 -35 19 -40 -15 -55 -17 -55 -7 0 6 -16 18 -35 26 -44 18
-51 18 -35 -1 7 -8 9 -15 5 -15 -4 0 -2 -7 5 -15 10 -12 10 -15 -1 -16 -8 -1
-21 -2 -29 -3 -8 -1 -19 2 -25 5 -13 9 -44 5 -78 -9 -37 -16 -74 -15 -81 1 -3
8 -11 5 -22 -11 l-18 -24 -17 24 c-14 18 -28 23 -71 25 -29 0 -54 2 -55 2 -2
1 -6 1 -10 0 -13 -2 -27 35 -15 39 19 6 14 20 -9 27 -19 6 -19 8 -3 20 17 12
16 13 -4 19 -30 10 -28 46 5 70 14 11 23 13 18 6 -6 -10 -4 -12 9 -7 10 4 21
7 25 7 5 0 6 11 3 25 -2 14 -11 25 -18 25 -22 0 -16 17 9 24 17 5 19 8 9 15
-10 6 -4 14 25 30 21 13 45 26 53 31 14 8 64 4 83 -7z m-113 -1389 c0 -8 -4
-12 -10 -9 -5 3 -10 10 -10 16 0 5 5 9 10 9 6 0 10 -7 10 -16z"/>
<path d="M2595 1860 c3 -5 10 -10 16 -10 5 0 9 5 9 10 0 6 -7 10 -16 10 -8 0
-12 -4 -9 -10z"/>
<path d="M1920 1740 c0 -5 5 -10 10 -10 6 0 10 5 10 10 0 6 -4 10 -10 10 -5 0
-10 -4 -10 -10z"/>
<path d="M2978 2956 c-18 -13 -25 -46 -10 -46 4 0 20 6 35 13 30 14 35 32 11
41 -19 7 -15 8 -36 -8z"/>
<path d="M1985 1369 c-8 -12 -5 -16 15 -19 29 -4 39 0 34 15 -7 17 -40 20 -49
4z"/>
<path d="M2280 1250 c0 -5 4 -10 9 -10 6 0 13 5 16 10 3 6 -1 10 -9 10 -9 0
-16 -4 -16 -10z"/>
<path d="M1825 1240 c-3 -5 -1 -10 4 -10 6 0 11 5 11 10 0 6 -2 10 -4 10 -3 0
-8 -4 -11 -10z"/>
<path d="M3690 3987 c0 -22 10 -26 41 -15 40 14 37 28 -6 28 -22 0 -35 -5 -35
-13z"/>
<path d="M3804 3985 c11 -8 25 -15 31 -15 7 0 20 -9 30 -20 15 -16 21 -18 33
-7 8 6 34 12 56 12 35 0 41 3 44 23 3 22 2 22 -105 22 -97 -1 -106 -2 -89 -15z"/>
<path d="M1157 3945 c-10 -9 -17 -20 -17 -25 0 -22 14 -40 30 -40 22 0 35 16
20 25 -6 4 -8 11 -5 16 4 5 2 16 -3 25 -8 14 -10 14 -25 -1z"/>
<path d="M1240 3915 c0 -27 9 -32 28 -13 18 18 14 38 -8 38 -15 0 -20 -7 -20
-25z"/>
<path d="M1066 3823 c-6 -14 -5 -15 5 -6 7 7 10 15 7 18 -3 3 -9 -2 -12 -12z"/>
<path d="M3980 3829 c0 -5 5 -7 10 -4 6 3 10 8 10 11 0 2 -4 4 -10 4 -5 0 -10
-5 -10 -11z"/>
<path d="M974 3810 c-12 -5 -25 -14 -29 -20 -4 -7 -11 -78 -15 -158 -4 -81
-10 -154 -14 -163 -13 -31 37 -32 83 -2 36 24 39 28 27 42 -12 13 -13 25 -4
61 5 25 10 84 9 132 0 54 3 89 10 94 8 4 7 9 -2 15 -17 11 -37 10 -65 -1z"/>
<path d="M3990 3706 c0 -9 -8 -20 -17 -23 -23 -8 -32 -23 -26 -39 4 -10 9 -10
24 -1 18 11 36 63 25 74 -3 4 -6 -1 -6 -11z"/>
<path d="M1257 3703 c-4 -3 -7 -11 -7 -17 0 -6 5 -5 12 2 6 6 9 14 7 17 -3 3
-9 2 -12 -2z"/>
<path d="M1140 3640 c0 -5 7 -10 15 -10 8 0 15 5 15 10 0 6 -7 10 -15 10 -8 0
-15 -4 -15 -10z"/>
<path d="M3858 3603 c7 -3 16 -2 19 1 4 3 -2 6 -13 5 -11 0 -14 -3 -6 -6z"/>
<path d="M3346 3521 c-4 -7 -5 -15 -2 -18 9 -9 19 4 14 18 -4 11 -6 11 -12 0z"/>
<path d="M1255 3479 c-10 -15 3 -25 16 -12 7 7 7 13 1 17 -6 3 -14 1 -17 -5z"/>
<path d="M1185 3400 c3 -5 8 -10 11 -10 2 0 4 5 4 10 0 6 -5 10 -11 10 -5 0
-7 -4 -4 -10z"/>
<path d="M1220 3310 c0 -5 4 -10 9 -10 6 0 13 5 16 10 3 6 -1 10 -9 10 -9 0
-16 -4 -16 -10z"/>
<path d="M3973 3153 c-31 -6 -29 -18 2 -18 14 0 25 6 25 13 0 6 -1 11 -2 11
-2 -1 -13 -4 -25 -6z"/>
<path d="M3815 3134 l-30 -14 30 4 c17 3 36 5 43 5 7 1 10 6 7 11 -8 12 -13
12 -50 -6z"/>
<path d="M3675 3121 c-6 -11 9 -23 19 -14 9 9 7 23 -3 23 -6 0 -12 -4 -16 -9z"/>
<path d="M3528 3009 c-19 -11 -24 -44 -9 -54 5 -3 12 -19 16 -35 4 -17 11 -30
15 -30 12 0 23 58 18 95 -3 32 -15 39 -40 24z"/>
<path d="M3400 2741 c0 -12 6 -21 16 -21 9 0 14 7 12 17 -5 25 -28 28 -28 4z"/>
<path d="M3440 2740 c0 -5 9 -10 20 -10 11 0 20 5 20 10 0 6 -9 10 -20 10 -11
0 -20 -4 -20 -10z"/>
<path d="M3420 2683 c-36 -7 -49 -22 -24 -29 16 -4 20 -11 16 -30 -5 -30 23
-34 31 -4 3 11 12 20 21 20 9 0 16 6 16 13 0 14 -20 38 -29 36 -4 -1 -17 -4
-31 -6z"/>
<path d="M3470 2512 c0 -5 7 -15 15 -22 8 -7 15 -21 15 -31 0 -20 8 -23 27
-11 8 5 10 17 5 37 -6 23 -15 31 -35 33 -15 2 -27 -1 -27 -6z"/>
</g>
</svg>
