<?xml version="1.0" standalone="no"?>
<!DOCTYPE svg PUBLIC "-//W3C//DTD SVG 20010904//EN"
 "http://www.w3.org/TR/2001/REC-SVG-20010904/DTD/svg10.dtd">
<svg version="1.0" xmlns="http://www.w3.org/2000/svg"
 width="400.000000pt" height="400.000000pt" viewBox="0 0 400.000000 400.000000"
 preserveAspectRatio="xMidYMid meet">
<metadata>
Created by potrace 1.14, written by Peter Selinger 2001-2017
</metadata>
<g transform="translate(0.000000,400.000000) scale(0.100000,-0.100000)"
fill="#000000" stroke="none">
<path d="M1991 3958 c-77 -315 -80 -328 -56 -328 11 0 15 -12 15 -44 0 -41 2
-45 28 -51 16 -3 41 -1 56 5 47 17 138 12 187 -11 24 -12 45 -22 46 -23 1 0 4
-13 8 -29 6 -21 4 -27 -9 -27 -9 0 -16 -5 -16 -11 0 -6 -16 -25 -35 -43 -33
-31 -40 -34 -106 -34 -76 -1 -109 -8 -109 -23 0 -7 12 -8 31 -4 21 5 34 3 39
-5 6 -9 13 -9 29 -1 20 11 21 10 21 -42 l0 -53 41 -1 c22 0 46 -6 52 -12 8 -8
7 -11 -2 -11 -10 0 -11 -3 -3 -13 12 -14 5 -57 -9 -57 -5 0 -14 -11 -19 -25
-5 -14 -13 -25 -17 -25 -10 0 -28 -42 -43 -97 -6 -23 -16 -46 -23 -50 -7 -4
-23 -30 -35 -56 -18 -37 -31 -52 -60 -64 -20 -8 -44 -22 -53 -29 -9 -8 -35
-16 -58 -17 -37 -1 -61 -20 -46 -35 3 -3 5 0 5 6 0 7 5 12 10 12 6 0 10 -7 10
-15 0 -8 -7 -15 -15 -15 -9 0 -15 -9 -15 -21 0 -17 -3 -19 -14 -10 -15 13 -26
-4 -26 -39 0 -10 -6 -21 -12 -23 -7 -3 1 -6 19 -6 24 -1 31 3 27 13 -3 8 0 17
7 22 9 5 10 2 6 -9 -3 -9 -1 -22 6 -29 13 -14 17 -78 5 -78 -8 0 -12 21 -10
50 1 12 -9 14 -46 11 -26 -3 -39 -6 -29 -9 9 -2 17 -12 17 -23 0 -10 5 -19 10
-19 6 0 10 9 10 20 0 27 16 25 24 -2 10 -40 7 -78 -8 -78 -7 0 -19 -7 -26 -15
-11 -13 -10 -18 5 -29 15 -11 16 -14 3 -19 -9 -3 -15 -17 -15 -31 0 -22 4 -26
28 -26 21 0 27 -4 23 -15 -4 -8 -14 -15 -23 -16 -13 0 -13 -2 -1 -6 38 -14 41
-26 13 -44 -33 -22 -47 -24 -37 -6 4 6 -11 -6 -33 -28 -22 -22 -39 -41 -38
-43 2 -2 22 10 46 26 24 17 67 42 94 57 54 30 83 52 52 41 -10 -3 -25 -6 -33
-6 -9 0 -12 -5 -8 -11 4 -7 1 -10 -6 -7 -29 9 -21 28 10 28 29 0 31 2 19 17
-12 14 -9 14 19 -2 23 -14 37 -17 46 -10 8 6 35 24 60 40 l46 30 -3 133 -4
133 21 -16 c44 -32 69 -38 111 -25 22 6 50 11 62 11 12 0 41 6 65 15 26 9 44
11 46 5 2 -5 10 -7 17 -5 11 5 13 -2 9 -28 -7 -43 8 -83 40 -103 23 -16 27
-16 41 -1 22 21 23 20 17 -10 -4 -24 -3 -25 17 -15 14 8 21 8 21 1 0 -5 7 -10
15 -10 11 0 10 -7 -6 -35 -12 -19 -18 -35 -15 -35 3 0 19 24 36 53 46 82 65
99 95 85 14 -6 25 -14 25 -18 0 -9 79 -44 174 -76 78 -27 127 -59 146 -94 8
-15 6 -17 -13 -12 -20 5 -20 4 -8 -11 9 -12 10 -17 2 -17 -7 0 -9 -5 -4 -12 4
-7 8 -19 9 -26 5 -28 14 -43 24 -37 5 3 10 -3 10 -14 0 -10 5 -21 11 -23 6 -2
12 -17 13 -33 2 -17 6 -37 9 -45 14 -34 49 -157 52 -184 3 -15 7 -36 10 -46 3
-10 7 -31 9 -46 7 -54 18 -109 27 -139 5 -16 13 -57 18 -90 5 -33 14 -75 19
-93 10 -29 9 -32 -6 -28 -9 3 -55 6 -102 7 -66 2 -115 -5 -223 -31 -76 -18
-136 -35 -133 -37 3 -3 27 0 55 7 78 18 154 -7 146 -48 -2 -9 -9 -53 -16 -97
-6 -44 -16 -86 -22 -92 -5 -7 -7 -20 -3 -28 3 -8 1 -15 -4 -15 -5 0 -7 -6 -4
-13 3 -8 -2 -20 -11 -27 -8 -7 -15 -18 -15 -24 -1 -24 -50 -43 -175 -70 -71
-16 -134 -29 -140 -30 -5 -1 -20 -7 -32 -14 -12 -7 -30 -12 -40 -12 -10 0 -28
-6 -39 -14 -11 -8 -49 -17 -84 -21 -79 -7 -105 -14 -94 -25 22 -20 226 -131
231 -126 4 3 0 6 -7 6 -7 0 -10 3 -6 7 4 4 34 10 67 13 l60 6 -3 -56 c-2 -30
-7 -54 -13 -54 -5 1 -21 5 -33 9 -22 6 -23 4 -21 -23 3 -24 -7 -41 -54 -91
-31 -34 -57 -66 -57 -71 0 -17 -84 -96 -127 -120 -24 -13 -43 -27 -43 -30 0
-15 -80 -90 -96 -90 -9 0 -18 -8 -21 -19 -3 -12 -11 -17 -22 -14 -21 5 -46
-37 -38 -66 3 -12 1 -21 -4 -21 -5 0 -9 16 -9 35 0 19 -2 35 -4 35 -11 0 -66
-63 -66 -75 0 -18 -20 -30 -20 -13 -1 7 -7 -2 -15 -20 -8 -18 -11 -40 -8 -50
5 -13 1 -12 -19 6 l-24 22 -23 -24 c-13 -14 -21 -31 -18 -39 3 -8 2 -19 -3
-26 -5 -9 -17 3 -39 36 -72 111 -189 240 -266 293 -53 37 -72 39 -27 4 25 -20
32 -33 32 -60 0 -24 -4 -34 -16 -34 -22 0 -74 -51 -74 -74 0 -15 -5 -17 -26
-12 -24 6 -25 5 -19 -22 4 -20 1 -33 -10 -42 -15 -13 -20 -83 -9 -128 l6 -22
1255 0 c772 0 1252 4 1248 10 -6 10 50 7 76 -4 14 -6 17 2 18 64 l1 70 -26 -6
c-24 -6 -25 -5 -15 14 6 11 16 22 22 24 17 6 22 50 7 60 -8 5 -9 8 -2 8 7 0
12 28 13 78 l2 78 -56 18 c-100 31 -129 117 -89 268 18 72 24 84 92 170 l52
67 0 345 c0 263 -3 346 -12 346 -9 0 -9 3 0 12 9 9 12 288 12 1195 l0 1183
-583 0 -583 0 -22 -89 c-26 -104 -26 -111 -8 -136 14 -19 15 -19 34 5 l19 24
12 -22 c8 -14 8 -22 1 -22 -5 0 -10 -10 -10 -23 0 -46 -45 -64 -56 -22 -8 34
-23 31 -31 -5 -13 -66 -24 -39 -19 44 3 48 2 86 -3 86 -12 0 -21 -56 -25 -155
-4 -88 -23 -185 -36 -185 -5 0 -25 22 -45 50 -35 47 -36 51 -24 89 9 31 9 47
0 68 -6 16 -12 45 -13 66 -1 21 -6 40 -11 44 -5 3 -3 9 4 14 11 7 11 9 -1 9
-13 0 -13 1 0 10 12 7 13 16 2 55 -7 25 -12 54 -12 65 0 27 -28 26 -51 -2 -24
-27 -24 -34 1 -41 25 -7 28 -45 3 -43 -20 1 -24 -35 -10 -86 5 -20 4 -28 -5
-28 -7 0 -18 -11 -24 -24 -9 -19 -7 -26 13 -44 33 -30 31 -56 -4 -47 -16 3
-31 9 -35 13 -3 4 0 70 7 147 19 185 19 185 -3 185 -16 0 -18 -11 -18 -129 1
-164 -7 -184 -73 -176 -77 10 -91 15 -91 31 0 8 -7 29 -16 45 -19 37 -44 35
-57 -6 -5 -16 -14 -36 -20 -42 -13 -18 -47 -16 -47 1 0 8 -12 21 -26 28 -15 7
-26 17 -24 21 1 5 -11 23 -27 39 -23 26 -24 29 -6 19 20 -10 23 -8 32 26 14
48 14 73 1 73 -5 0 -17 14 -25 31 -16 30 -16 30 4 19 12 -6 21 -15 21 -20 0
-6 5 -10 10 -10 6 0 10 11 10 25 0 24 -2 25 -64 25 l-64 0 -11 -42z m879 -28
c0 -11 -4 -20 -9 -20 -5 0 -7 9 -4 20 3 11 7 20 9 20 2 0 4 -9 4 -20z m50 -43
c0 -19 -20 -36 -37 -30 -11 5 -11 9 3 24 20 22 34 24 34 6z m510 -137 c64 -14
79 -20 63 -25 -29 -9 -20 -25 15 -25 21 0 28 -5 28 -20 0 -11 -6 -20 -13 -20
-7 0 -13 -7 -13 -15 0 -8 -4 -15 -10 -15 -12 0 -14 -26 -2 -33 4 -2 1 -2 -6 0
-19 4 -46 -24 -31 -33 6 -3 15 -1 19 6 4 7 13 10 19 6 6 -4 20 -2 31 4 11 6
20 7 20 2 0 -9 -85 -45 -145 -61 -48 -13 -98 -14 -91 -2 5 8 -57 5 -84 -5 -8
-3 -11 -2 -7 2 4 4 0 15 -9 25 -9 10 -19 37 -22 61 -7 42 -7 41 -13 -27 -4
-45 -5 -29 -3 46 2 64 7 124 10 133 9 23 133 21 244 -4z m-1311 -7 c0 -5 -4
-17 -9 -28 -8 -18 -9 -17 -9 8 -1 15 4 27 9 27 6 0 10 -3 9 -7z m765 -172 c12
-44 14 -66 6 -85 -6 -18 -7 -34 0 -45 14 -28 9 -313 -7 -374 -8 -29 -16 -68
-18 -87 -2 -20 -6 -52 -10 -73 -7 -36 -8 -37 -25 -20 -9 10 -17 23 -17 28 0
30 -25 119 -39 140 -10 15 -16 47 -17 82 -1 93 4 163 12 159 4 -3 8 28 10 67
1 40 7 75 13 78 6 4 14 31 19 60 8 53 38 129 50 129 4 0 14 -26 23 -59z m312
-426 c-4 -85 -11 -167 -16 -182 -5 -15 -11 -138 -15 -272 -3 -135 -8 -247 -10
-250 -5 -4 -10 156 -8 219 1 19 4 95 6 167 3 73 9 139 15 145 5 7 13 84 17
171 4 86 10 157 13 157 3 0 2 -70 -2 -155z m41 63 c-3 -8 -6 -5 -6 6 -1 11 2
17 5 13 3 -3 4 -12 1 -19z m-255 -140 c-14 -26 -28 -45 -33 -43 -4 3 -17 -7
-30 -22 -15 -20 -20 -22 -14 -8 4 11 15 44 24 72 10 29 28 64 42 79 l24 26 6
-29 c4 -19 -2 -43 -19 -75z m245 -125 c-3 -10 -5 -4 -5 12 0 17 2 24 5 18 2
-7 2 -21 0 -30z m-10 -210 c-2 -16 -4 -5 -4 22 0 28 2 40 4 28 2 -13 2 -35 0
-50z m-1312 -13 c3 -6 -1 -7 -9 -4 -18 7 -21 14 -7 14 6 0 13 -4 16 -10z m-38
-72 c-3 -8 -6 -5 -6 6 -1 11 2 17 5 13 3 -3 4 -12 1 -19z m40 -70 c-3 -8 -6
-5 -6 6 -1 11 2 17 5 13 3 -3 4 -12 1 -19z m663 -42 c0 -5 -9 -1 -20 9 -11 10
-17 22 -14 27 6 9 33 -20 34 -36z m-693 -28 c-3 -8 -6 -5 -6 6 -1 11 2 17 5
13 3 -3 4 -12 1 -19z m20 0 c-3 -8 -6 -5 -6 6 -1 11 2 17 5 13 3 -3 4 -12 1
-19z m1250 -221 c-2 -23 -3 -1 -3 48 0 50 1 68 3 42 2 -26 2 -67 0 -90z m833
79 c0 -19 -4 -38 -10 -41 -5 -3 -10 -15 -10 -26 0 -22 -15 -26 -23 -5 -6 16
24 106 35 106 5 0 8 -15 8 -34z m-60 10 c0 -3 -4 -8 -10 -11 -5 -3 -10 -1 -10
4 0 6 5 11 10 11 6 0 10 -2 10 -4z m25 -236 c-9 -28 -21 -50 -26 -50 -15 0
-10 28 11 67 11 21 21 45 21 53 1 11 3 10 6 -3 2 -9 -3 -40 -12 -67z m-35 60
c0 -5 -4 -10 -10 -10 -5 0 -10 5 -10 10 0 6 5 10 10 10 6 0 10 -4 10 -10z m26
-172 c-3 -13 -9 -40 -12 -61 -6 -36 -24 -62 -24 -35 0 29 25 118 33 118 5 0 7
-10 3 -22z m-70 -25 c-10 -10 -19 5 -10 18 6 11 8 11 12 0 2 -7 1 -15 -2 -18z
m-6 -173 c0 -5 -5 -10 -11 -10 -5 0 -7 5 -4 10 3 6 8 10 11 10 2 0 4 -4 4 -10z
m-20 -209 c0 -6 -4 -13 -10 -16 -5 -3 -10 1 -10 9 0 9 5 16 10 16 6 0 10 -4
10 -9z m-35 -181 c3 -5 1 -10 -4 -10 -6 0 -11 5 -11 10 0 6 2 10 4 10 3 0 8
-4 11 -10z m175 -4 c0 -3 -4 -8 -10 -11 -5 -3 -10 -1 -10 4 0 6 5 11 10 11 6
0 10 -2 10 -4z m-210 -176 c0 -5 -4 -10 -10 -10 -5 0 -10 5 -10 10 0 6 5 10
10 10 6 0 10 -4 10 -10z m180 0 c0 -5 -4 -10 -10 -10 -5 0 -10 5 -10 10 0 6 5
10 10 10 6 0 10 -4 10 -10z m-30 -156 c0 -8 -5 -12 -10 -9 -6 4 -8 11 -5 16 9
14 15 11 15 -7z m-180 -4 c0 -5 -4 -10 -10 -10 -5 0 -10 5 -10 10 0 6 5 10 10
10 6 0 10 -4 10 -10z m-40 -159 c0 -6 -4 -13 -10 -16 -5 -3 -10 1 -10 9 0 9 5
16 10 16 6 0 10 -4 10 -9z m188 -12 c-2 -6 -8 -10 -13 -10 -5 0 -11 4 -13 10
-2 6 4 11 13 11 9 0 15 -5 13 -11z m-28 -125 c0 -8 -4 -12 -10 -9 -5 3 -10 -3
-10 -14 0 -22 -15 -36 -24 -22 -8 12 24 72 35 66 5 -4 9 -13 9 -21z m-210 -18
c0 -8 -4 -17 -9 -21 -12 -7 -24 12 -16 25 9 15 25 12 25 -4z m163 -123 c9 -48
-31 -99 -56 -74 -7 7 -7 18 1 33 6 13 14 33 17 46 9 30 32 28 38 -5z m-180
-19 c-4 -10 -9 -12 -15 -6 -12 12 -1 35 12 27 5 -3 6 -13 3 -21z m-37 -15 c3
-6 2 -15 -2 -19 -12 -12 -38 5 -30 19 9 14 23 14 32 0z m49 -79 c-12 -4 -15
-9 -7 -14 20 -12 1 -38 -24 -33 -13 2 -24 0 -24 -5 0 -5 -4 -7 -9 -4 -5 4 -11
1 -13 -6 -3 -8 -11 -5 -23 9 -10 12 -24 19 -30 16 -7 -2 -16 0 -20 6 -4 7 1 8
12 4 15 -6 16 -4 5 9 -10 13 -10 18 -1 24 8 4 9 3 5 -4 -4 -7 -1 -12 8 -12 9
0 16 -6 17 -12 0 -10 2 -10 6 0 2 6 11 12 19 12 9 0 12 5 8 11 -5 8 0 10 17 6
13 -3 31 -2 39 3 8 5 18 6 24 3 5 -4 1 -9 -9 -13z m111 -12 c-2 -18 2 -39 7
-45 7 -9 5 -13 -6 -13 -8 0 -17 -7 -21 -15 -7 -20 -46 -19 -46 1 0 9 8 18 19
21 12 3 17 11 14 23 -4 14 16 48 33 59 1 1 1 -14 0 -31z m-230 -75 c-7 -17 -8
-17 -22 1 -11 16 -11 21 -2 27 18 11 32 -6 24 -28z m178 -95 c7 -31 -12 -39
-33 -14 -9 11 -8 18 5 30 19 20 19 20 28 -16z m-271 -23 c-3 -9 -8 -14 -10
-11 -3 3 -2 9 2 15 9 16 15 13 8 -4z m240 -9 c5 -14 -10 -36 -25 -36 -4 0 -8
8 -8 18 0 31 23 44 33 18z m287 -51 c0 -8 -7 -15 -15 -15 -16 0 -20 12 -8 23
11 12 23 8 23 -8z m-317 -61 c-3 -8 -11 -14 -18 -14 -19 0 -27 30 -13 47 10
13 14 13 24 -2 7 -9 10 -23 7 -31z m-39 -21 c9 -21 -16 -37 -27 -17 -9 15 -2
34 13 34 4 0 11 -8 14 -17z m329 -61 c-31 -62 -41 -70 -35 -30 3 18 12 38 20
44 11 8 12 13 3 18 -9 6 -8 13 5 28 30 32 34 -6 7 -60z m-545 36 c-2 -22 -9
-34 -21 -36 -15 -3 -17 1 -11 25 9 36 13 43 25 43 6 0 9 -15 7 -32z m-63 -38
c3 -5 -1 -10 -10 -10 -9 0 -13 5 -10 10 3 6 8 10 10 10 2 0 7 -4 10 -10z m-15
-24 c0 -3 -4 -8 -10 -11 -5 -3 -10 -1 -10 4 0 6 5 11 10 11 6 0 10 -2 10 -4z
m210 -6 c0 -5 -4 -10 -10 -10 -5 0 -10 5 -10 10 0 6 5 10 10 10 6 0 10 -4 10
-10z m450 6 c0 -2 -7 -7 -16 -10 -8 -3 -12 -2 -9 4 6 10 25 14 25 6z m-755
-35 c7 -12 -31 -24 -47 -15 -8 5 -6 10 8 15 26 10 32 10 39 0z m-75 -21 c0 -5
-7 -10 -15 -10 -8 0 -15 5 -15 10 0 6 7 10 15 10 8 0 15 -4 15 -10z m-18 -31
c-15 -6 -30 -5 -40 1 -13 7 -8 9 23 9 35 0 37 -1 17 -10z m268 1 c0 -5 -7 -10
-16 -10 -8 0 -12 5 -9 10 3 6 10 10 16 10 5 0 9 -4 9 -10z m-330 -10 c0 -5 -7
-10 -15 -10 -8 0 -15 5 -15 10 0 6 7 10 15 10 8 0 15 -4 15 -10z"/>
<path d="M1873 3313 c-22 -8 -14 -23 12 -23 18 0 23 4 19 15 -6 16 -11 17 -31
8z"/>
<path d="M2010 3310 c0 -5 5 -10 10 -10 6 0 10 5 10 10 0 6 -4 10 -10 10 -5 0
-10 -4 -10 -10z"/>
<path d="M2015 3280 c3 -5 13 -10 21 -10 8 0 14 -7 14 -15 0 -19 19 -20 26 -1
3 8 12 12 20 9 8 -3 14 -1 14 5 0 5 -14 12 -31 16 -46 9 -71 7 -64 -4z"/>
<path d="M1772 3257 c-21 -22 -21 -25 -7 -68 l15 -44 -4 44 c-4 37 0 47 21 67
17 16 21 24 11 24 -8 0 -24 -10 -36 -23z"/>
<path d="M1845 3267 c-4 -10 -5 -21 -1 -24 10 -10 18 4 13 24 -4 17 -4 17 -12
0z"/>
<path d="M1790 3222 c0 -10 11 -24 25 -30 33 -15 35 -15 35 3 0 8 -13 21 -30
30 -28 15 -30 14 -30 -3z"/>
<path d="M1942 3193 c-12 -14 -19 -30 -16 -35 3 -5 2 -8 -3 -7 -32 6 -49 -20
-33 -50 6 -12 22 -18 46 -19 44 -2 64 12 64 42 0 12 5 27 12 34 9 9 8 12 -5
12 -10 0 -22 11 -27 25 -5 14 -11 25 -13 25 -2 0 -13 -12 -25 -27z"/>
<path d="M1776 3125 c4 -9 18 -14 38 -14 30 2 30 2 4 6 -16 2 -28 9 -28 14 0
5 -4 9 -10 9 -5 0 -7 -7 -4 -15z"/>
<path d="M1860 3100 c0 -5 5 -10 11 -10 5 0 7 5 4 10 -3 6 -8 10 -11 10 -2 0
-4 -4 -4 -10z"/>
<path d="M1930 3056 c0 -7 11 -19 25 -26 28 -15 30 -20 13 -42 -18 -22 -80
-35 -72 -15 3 8 20 19 37 25 l32 10 -30 1 c-35 1 -75 -23 -75 -46 0 -13 8 -15
43 -10 23 3 53 9 67 12 24 7 24 6 -5 -18 -16 -14 -26 -29 -22 -33 4 -5 11 -4
15 1 4 6 14 11 22 13 8 2 30 19 49 39 40 41 35 51 -46 81 -38 14 -53 17 -53 8z"/>
<path d="M1851 2844 c0 -11 3 -14 6 -6 3 7 2 16 -1 19 -3 4 -6 -2 -5 -13z"/>
<path d="M1756 2572 c-3 -6 -1 -14 5 -17 14 -9 20 -2 10 14 -6 8 -11 9 -15 3z"/>
<path d="M1760 2490 c0 -5 5 -10 11 -10 5 0 7 5 4 10 -3 6 -8 10 -11 10 -2 0
-4 -4 -4 -10z"/>
<path d="M2 2430 c0 -14 2 -19 5 -12 2 6 2 18 0 25 -3 6 -5 1 -5 -13z"/>
<path d="M2061 2383 c0 -12 -4 -30 -7 -40 -5 -17 -5 -17 6 0 6 10 9 28 7 40
-4 22 -4 22 -6 0z"/>
<path d="M2491 2364 c0 -11 3 -14 6 -6 3 7 2 16 -1 19 -3 4 -6 -2 -5 -13z"/>
<path d="M22 2340 c0 -14 2 -19 5 -12 2 6 2 18 0 25 -3 6 -5 1 -5 -13z"/>
<path d="M1 1615 l-1 -710 38 85 c21 47 50 107 65 133 15 26 27 53 27 60 0 17
39 93 44 87 3 -3 8 -2 12 3 4 4 0 7 -9 7 -20 0 -22 11 -5 28 9 9 9 12 -1 12
-8 0 -11 6 -7 15 3 8 0 14 -6 12 -6 -1 -13 4 -15 11 -3 7 -1 12 4 11 18 -3 33
2 33 11 0 6 -9 10 -20 10 -11 0 -20 5 -20 10 0 6 5 10 10 10 6 0 8 16 4 42 -6
32 -4 39 6 33 8 -5 11 -3 8 6 -3 8 -10 15 -16 15 -25 3 -27 5 -13 13 16 10 6
31 -15 31 -11 0 -13 4 -5 17 7 12 4 25 -8 43 -25 35 -32 58 -20 66 6 3 13 -3
16 -15 3 -12 11 -21 18 -21 9 0 11 8 7 22 -4 17 -2 20 11 15 37 -14 14 9 -26
26 -23 10 -37 21 -32 25 19 12 15 55 -5 69 -11 8 -20 22 -20 31 1 15 2 15 15
-2 8 -11 18 -17 21 -13 8 7 -15 31 -39 40 -23 9 -22 31 2 24 19 -5 31 10 31
36 0 8 -3 8 -8 -1 -7 -9 -13 -8 -27 8 -10 11 -15 23 -10 28 4 4 10 1 12 -5 6
-18 23 -16 23 2 0 8 -4 15 -10 15 -5 0 -10 7 -10 15 0 8 6 15 13 15 9 0 9 2 0
8 -22 14 -45 93 -32 108 8 10 8 18 0 27 -8 10 -7 17 1 25 8 8 8 15 -1 26 -7 8
-13 30 -13 48 -1 18 -7 47 -14 63 -11 25 -13 -87 -13 -680z"/>
<path d="M1748 2313 c14 -3 20 -9 15 -16 -4 -7 2 -5 13 3 10 8 20 15 22 16 1
0 -15 1 -35 1 -21 0 -28 -2 -15 -4z"/>
<path d="M1700 2189 c-6 -11 -10 -25 -7 -32 2 -6 9 3 15 21 12 36 8 42 -8 11z"/>
<path d="M2690 2128 c-12 -22 -12 -22 6 -6 10 10 15 20 12 24 -4 3 -12 -5 -18
-18z"/>
<path d="M2664 2085 c-10 -26 1 -35 13 -10 6 14 7 25 2 25 -5 0 -12 -7 -15
-15z"/>
<path d="M1656 2077 c3 -10 9 -15 12 -12 3 3 0 11 -7 18 -10 9 -11 8 -5 -6z"/>
<path d="M2582 1840 c0 -14 2 -19 5 -12 2 6 2 18 0 25 -3 6 -5 1 -5 -13z"/>
<path d="M1383 1843 c9 -2 23 -2 30 0 6 3 -1 5 -18 5 -16 0 -22 -2 -12 -5z"/>
<path d="M1610 1834 c0 -16 -2 -17 -10 -4 -5 8 -10 11 -10 5 0 -5 4 -16 9 -24
7 -11 10 -9 16 8 4 13 4 25 1 28 -3 4 -6 -2 -6 -13z"/>
<path d="M2308 1833 c7 -3 16 -2 19 1 4 3 -2 6 -13 5 -11 0 -14 -3 -6 -6z"/>
<path d="M1425 1821 c-3 -5 3 -12 12 -14 15 -4 15 -5 -2 -6 -16 -2 -14 -4 10
-15 31 -14 30 -15 -20 -31 -10 -3 -15 -18 -16 -47 0 -24 -2 -52 -5 -63 -2 -11
-6 -63 -9 -115 -2 -52 -7 -117 -10 -144 -4 -44 -3 -48 8 -31 13 16 14 15 9
-13 -2 -18 -8 -30 -12 -27 -7 4 -6 -47 2 -123 1 -8 11 -12 24 -10 23 3 24 6
29 153 4 83 10 182 15 220 5 46 6 5 3 -120 -3 -104 -3 -188 0 -185 6 5 12 80
27 344 6 92 13 172 16 177 2 5 -3 20 -12 34 -16 25 -57 34 -69 16z"/>
<path d="M1531 1809 c0 -8 6 -24 14 -35 13 -17 14 -17 15 -1 0 9 -4 17 -9 17
-5 0 -12 8 -14 18 -4 13 -5 14 -6 1z"/>
<path d="M1981 1801 c0 -8 -11 -25 -23 -38 -27 -29 -19 -40 12 -15 15 12 21
25 17 42 -2 14 -5 19 -6 11z"/>
<path d="M2415 1790 c3 -5 8 -10 11 -10 2 0 4 5 4 10 0 6 -5 10 -11 10 -5 0
-7 -4 -4 -10z"/>
<path d="M1920 1755 c0 -8 2 -15 4 -15 2 0 6 7 10 15 3 8 1 15 -4 15 -6 0 -10
-7 -10 -15z"/>
<path d="M2380 1760 c-12 -8 -9 -10 13 -10 15 0 27 5 27 10 0 13 -20 13 -40 0z"/>
<path d="M1580 1741 c0 -7 -4 -10 -9 -7 -7 5 -22 -73 -16 -82 2 -2 10 18 19
44 9 26 14 50 11 52 -3 3 -5 0 -5 -7z"/>
<path d="M2247 1723 c-12 -12 -7 -22 16 -34 21 -12 21 -11 4 8 -9 11 -14 23
-10 26 3 4 4 7 1 7 -2 0 -8 -3 -11 -7z"/>
<path d="M1270 1699 c0 -5 5 -7 10 -4 6 3 10 8 10 11 0 2 -4 4 -10 4 -5 0 -10
-5 -10 -11z"/>
<path d="M1329 1691 c16 -12 25 -30 26 -50 2 -45 12 -48 17 -6 3 30 0 40 -20
56 -14 10 -30 19 -36 19 -6 0 0 -9 13 -19z"/>
<path d="M1253 1665 c-3 -9 -3 -18 -1 -21 3 -3 8 4 11 16 6 23 -1 27 -10 5z"/>
<path d="M2320 1660 c0 -5 6 -10 14 -10 8 0 18 5 21 10 3 6 -3 10 -14 10 -12
0 -21 -4 -21 -10z"/>
<path d="M2290 1630 c-12 -8 -9 -10 13 -10 16 0 26 4 22 10 -8 12 -16 12 -35
0z"/>
<path d="M1162 1578 c-7 -7 -12 -21 -12 -32 0 -17 3 -16 15 8 17 32 15 42 -3
24z"/>
<path d="M2260 1570 c0 -13 70 -13 90 0 11 7 0 10 -37 10 -29 0 -53 -4 -53
-10z"/>
<path d="M2399 1523 c0 -11 -3 -13 -6 -5 -6 14 -43 16 -43 2 0 -5 8 -10 18
-11 11 0 7 -5 -13 -14 l-30 -14 49 -1 c39 0 47 3 42 15 -3 8 -1 15 4 15 6 0
10 7 10 15 0 21 -30 19 -31 -2z"/>
<path d="M1285 1500 c2 -11 0 -22 -6 -25 -18 -12 -9 -25 17 -25 20 0 25 4 20
16 -4 10 1 25 10 35 10 11 12 19 6 19 -6 0 -13 -6 -16 -12 -5 -10 -7 -10 -12
0 -9 19 -23 14 -19 -8z"/>
<path d="M1346 1504 c-9 -22 -8 -24 9 -18 8 4 15 12 15 20 0 19 -16 18 -24 -2z"/>
<path d="M1511 1494 c0 -11 3 -14 6 -6 3 7 2 16 -1 19 -3 4 -6 -2 -5 -13z"/>
<path d="M1000 1485 c0 -7 70 -47 78 -43 5 2 -11 13 -35 25 -24 12 -43 21 -43
18z"/>
<path d="M1530 1469 c0 -6 -7 -17 -15 -25 -19 -20 -20 -64 -1 -64 20 0 24 -18
15 -65 -5 -22 -8 -62 -9 -88 0 -64 -14 -69 -156 -53 -65 7 -71 6 -71 -11 0
-10 4 -23 8 -29 7 -8 2 -10 -16 -6 -14 2 -25 11 -25 19 0 12 -3 13 -14 4 -12
-10 -16 -8 -22 11 -4 13 -7 26 -6 31 1 4 -2 7 -6 7 -5 0 -14 12 -21 26 -6 15
-14 25 -16 22 -15 -14 156 -357 182 -365 18 -6 24 27 9 55 -8 15 -18 26 -22
24 -4 -1 -8 9 -10 23 -1 14 2 25 8 25 6 0 8 13 4 35 -5 27 -4 35 7 35 20 0 30
-15 57 -85 13 -33 24 -61 26 -63 7 -10 54 13 55 27 0 10 2 11 6 4 9 -23 22
-13 26 20 4 29 5 30 12 10 8 -24 20 -29 30 -13 3 6 1 10 -4 10 -6 0 -11 5 -11
10 0 6 8 10 18 10 14 0 15 2 2 10 -13 8 -13 10 2 10 9 0 19 10 21 23 3 13 5 8
6 -15 1 -41 3 -43 31 -28 18 9 18 13 5 49 l-14 39 35 -3 c38 -3 45 9 14 25
-11 6 -20 15 -20 21 0 6 4 8 9 4 11 -6 61 15 61 27 0 4 -5 8 -10 8 -16 0 -90
81 -90 99 -1 9 -15 25 -33 36 -42 26 -49 65 -13 65 18 0 26 5 26 17 0 9 -3 14
-6 10 -8 -7 -28 12 -37 36 -7 18 7 24 18 7 3 -5 12 -10 18 -10 16 1 -34 39
-50 40 -7 0 -13 -5 -13 -11z m-107 -326 c-7 -2 -21 -2 -30 0 -10 3 -4 5 12 5
17 0 24 -2 18 -5z m-123 -67 c0 -5 -7 -1 -15 10 -8 10 -14 24 -14 29 0 6 6 1
14 -9 8 -11 15 -24 15 -30z m267 -28 c-3 -8 -6 -5 -6 6 -1 11 2 17 5 13 3 -3
4 -12 1 -19z m-234 -6 c3 7 6 8 6 2 1 -5 -6 -19 -15 -30 -13 -16 -15 -16 -10
-2 3 10 1 20 -4 23 -6 4 -10 12 -10 18 0 7 7 4 14 -6 11 -14 15 -15 19 -5z
m37 -137 c0 -5 -5 -3 -10 5 -5 8 -10 20 -10 25 0 6 5 3 10 -5 5 -8 10 -19 10
-25z"/>
<path d="M2083 1465 c-7 -8 -13 -17 -13 -20 0 -3 -10 -19 -22 -35 -22 -31 -19
-45 10 -45 9 0 17 -7 17 -15 0 -8 10 -16 23 -18 18 -3 22 1 22 22 0 14 5 28
10 31 15 9 12 45 -4 45 -9 0 -12 8 -8 25 5 28 -15 34 -35 10z"/>
<path d="M2211 1466 c2 -2 14 -9 27 -15 18 -10 22 -9 22 4 0 10 -9 15 -27 15
-14 0 -24 -2 -22 -4z"/>
<path d="M1235 1450 c3 -5 11 -10 16 -10 6 0 7 5 4 10 -3 6 -11 10 -16 10 -6
0 -7 -4 -4 -10z"/>
<path d="M1120 1430 c0 -5 5 -10 11 -10 5 0 7 5 4 10 -3 6 -8 10 -11 10 -2 0
-4 -4 -4 -10z"/>
<path d="M1297 1375 c-7 -16 8 -29 23 -20 15 9 12 35 -4 35 -8 0 -16 -7 -19
-15z"/>
<path d="M580 1360 c0 -5 -7 -10 -15 -10 -9 0 -19 -8 -22 -17 -4 -10 -19 -31
-35 -46 -16 -15 -33 -38 -38 -50 -6 -12 -15 -30 -22 -39 -10 -13 -10 -27 -1
-60 10 -35 9 -47 -2 -64 -8 -12 -12 -34 -9 -48 2 -15 0 -26 -7 -26 -6 0 -9 -6
-6 -14 3 -8 -1 -17 -10 -20 -8 -4 -13 -12 -10 -20 3 -7 -3 -26 -13 -41 -11
-16 -17 -32 -14 -36 2 -5 -9 -18 -25 -30 -16 -12 -31 -33 -34 -48 -3 -14 -19
-41 -36 -60 -17 -19 -31 -40 -31 -46 0 -6 -11 -22 -25 -35 -14 -13 -25 -29
-25 -37 0 -7 -6 -13 -14 -13 -8 0 -17 -11 -20 -25 -4 -14 -14 -25 -24 -25 -17
-1 -65 -67 -89 -122 -7 -15 -21 -38 -32 -50 -20 -20 -21 -34 -21 -200 l0 -178
505 0 505 0 0 68 c0 37 7 93 14 125 10 42 11 78 6 125 -9 67 -9 67 27 111 23
27 58 54 95 71 33 16 67 35 76 43 9 8 34 20 55 27 33 10 37 15 34 38 -2 15 -7
35 -11 44 -5 10 -3 32 3 50 10 31 10 32 -5 13 -8 -11 -18 -32 -21 -47 -6 -32
-33 -38 -33 -7 0 16 -4 19 -21 14 -16 -5 -20 -3 -17 6 3 8 13 13 23 11 14 -3
16 1 11 23 -4 15 -14 34 -21 42 -8 8 -15 18 -15 23 0 5 -6 7 -14 4 -12 -4 -22
-26 -25 -50 0 -2 -7 -11 -15 -19 -18 -19 -52 -9 -36 10 9 11 7 12 -9 8 -25 -6
-25 -4 -7 32 16 31 11 55 -11 55 -10 0 -13 -6 -9 -16 4 -11 -1 -18 -14 -21
-11 -3 -17 -9 -14 -14 3 -5 0 -9 -5 -9 -6 0 -11 5 -11 11 0 5 -4 8 -9 5 -5 -3
-11 4 -15 17 -8 31 -7 37 4 37 6 0 10 -8 10 -17 0 -13 3 -14 11 -6 16 16 4 44
-16 37 -9 -4 -17 1 -22 12 -8 22 -22 34 -42 34 -10 0 -12 -8 -8 -28 4 -21 2
-29 -9 -29 -8 0 -12 7 -10 16 3 9 8 30 11 46 5 23 4 26 -4 15 -16 -22 -13 4 4
36 8 16 15 45 15 65 0 31 -4 37 -24 41 -21 4 -25 0 -37 -49 -11 -47 -10 -56 2
-64 9 -6 10 -12 3 -16 -5 -5 -18 -30 -28 -56 -10 -27 -20 -46 -23 -43 -2 2 1
15 8 27 14 28 32 151 31 229 0 143 -2 189 -12 211 -8 19 -9 12 -4 -28 11 -97
-22 -131 -107 -112 -22 5 -44 7 -48 4 -5 -2 -11 7 -14 20 -2 14 0 28 4 31 17
10 8 23 -18 26 -16 2 -27 8 -26 14 1 7 -5 11 -15 10 -13 -1 -16 6 -14 28 2 20
-3 33 -17 43 -12 8 -21 21 -21 29 0 8 -4 14 -10 14 -5 0 -10 -4 -10 -10z m260
-570 c-6 -11 -13 -20 -16 -20 -2 0 0 9 6 20 6 11 13 20 16 20 2 0 0 -9 -6 -20z
m98 -37 c-18 -41 -40 -74 -46 -69 -5 6 16 64 31 84 17 22 27 12 15 -15z m-125
-13 c-3 -11 -10 -23 -16 -27 -5 -3 -8 -2 -5 3 3 5 8 17 11 27 9 24 16 22 10
-3z m377 -35 c-7 -9 -15 -13 -18 -10 -3 2 1 11 8 20 7 9 15 13 18 10 3 -2 -1
-11 -8 -20z m-400 -9 c0 -2 -8 -10 -17 -17 -16 -13 -17 -12 -4 4 13 16 21 21
21 13z m475 -91 c0 -26 -9 -33 -21 -14 -4 8 -9 8 -13 1 -4 -7 -12 -7 -20 -3
-10 7 -6 12 15 24 39 20 39 20 39 -8z m-35 -45 c0 -5 -7 -7 -15 -4 -8 4 -15 8
-15 10 0 2 7 4 15 4 8 0 15 -4 15 -10z"/>
<path d="M862 1340 c0 -14 2 -19 5 -12 2 6 2 18 0 25 -3 6 -5 1 -5 -13z"/>
<path d="M1235 1350 c-3 -5 -1 -10 4 -10 6 0 11 5 11 10 0 6 -2 10 -4 10 -3 0
-8 -4 -11 -10z"/>
<path d="M1340 1315 c-8 -9 -8 -15 -2 -15 12 0 26 19 19 26 -2 2 -10 -2 -17
-11z"/>
<path d="M1906 1307 c3 -8 -5 -18 -18 -25 -36 -17 -2 -14 40 4 33 14 35 17 17
24 -30 13 -45 11 -39 -3z"/>
<path d="M2200 1310 c8 -5 22 -10 30 -10 13 0 13 1 0 10 -8 5 -22 10 -30 10
-13 0 -13 -1 0 -10z"/>
<path d="M1267 1258 c-2 -18 -3 -35 -1 -37 9 -10 29 21 29 44 1 37 -22 30 -28
-7z"/>
<path d="M1836 1245 c-11 -8 -15 -15 -9 -15 6 0 16 7 23 15 16 19 11 19 -14 0z"/>
<path d="M1917 1229 c-34 -83 -49 -130 -44 -135 3 -3 14 -3 25 0 15 5 22 22
32 82 13 84 8 104 -13 53z"/>
<path d="M1220 1223 c0 -4 5 -15 10 -23 8 -13 10 -13 10 2 0 9 -4 20 -10 23
-5 3 -10 3 -10 -2z"/>
<path d="M910 1178 c0 -10 7 -18 15 -18 8 0 18 0 22 -1 4 0 9 5 12 12 2 8 -2
10 -14 5 -11 -4 -22 -1 -27 6 -6 10 -8 8 -8 -4z"/>
<path d="M1720 1110 c0 -6 7 -10 15 -10 8 0 15 2 15 4 0 2 -7 6 -15 10 -8 3
-15 1 -15 -4z"/>
<path d="M912 1090 c0 -14 2 -19 5 -12 2 6 2 18 0 25 -3 6 -5 1 -5 -13z"/>
<path d="M937 1087 c-3 -9 1 -18 9 -21 16 -6 18 2 5 22 -7 11 -9 11 -14 -1z"/>
<path d="M1740 1080 c0 -5 9 -10 20 -10 11 0 20 5 20 10 0 6 -9 10 -20 10 -11
0 -20 -4 -20 -10z"/>
<path d="M1790 880 c-36 -24 -41 -30 -23 -30 12 0 26 7 31 16 5 8 26 21 48 29
32 11 34 14 14 15 -14 0 -45 -14 -70 -30z"/>
<path d="M1134 785 c-8 -21 6 -41 17 -24 12 19 11 39 -1 39 -6 0 -13 -7 -16
-15z"/>
<path d="M1340 620 c-9 -6 -10 -10 -3 -10 6 0 15 5 18 10 8 12 4 12 -15 0z"/>
<path d="M1180 493 c-72 -21 -155 -94 -146 -128 3 -11 6 -33 6 -49 0 -24 2
-27 15 -16 8 7 15 18 15 25 0 15 96 110 139 138 18 11 47 23 64 28 27 6 23 7
-23 7 -30 -1 -62 -3 -70 -5z"/>
</g>
</svg>
